<svg xmlns="http://www.w3.org/2000/svg" viewBox="0 0 512 512" width="512" height="512"><g id="Out_line" data-name="Out line"><path d="M456,16H104A40.04022,40.04022,0,0,0,64,56V208H80V56a24.03185,24.03185,0,0,1,24-24H456a24.03185,24.03185,0,0,1,24,24V280H464V64a16.01833,16.01833,0,0,0-16-16H112A16.01833,16.01833,0,0,0,96,64V208h16V64H448V280H192v16H480v8a24.03189,24.03189,0,0,1-24,24H192v16h48v24a24.03189,24.03189,0,0,1-24,24,8,8,0,0,0,0,16H344a8,8,0,0,0,0-16,24.03189,24.03189,0,0,1-24-24V344H456a40.04018,40.04018,0,0,0,40-40V56A40.04022,40.04022,0,0,0,456,16ZM247.98,392A39.80743,39.80743,0,0,0,256,368V344h48v24a39.80743,39.80743,0,0,0,8.02,24Z"></path><circle cx="280" cy="312" r="8"></circle><path d="M192,216V192a8.00008,8.00008,0,0,0-8-8H136a8.00008,8.00008,0,0,0-8,8v16h16v-8h32v16Z"></path><path d="M216,168a8.00008,8.00008,0,0,0-8,8v80a8.00008,8.00008,0,0,0,8,8h48a8.00008,8.00008,0,0,0,8-8V176a8.00008,8.00008,0,0,0-8-8Zm40,80H224V184h32Z"></path><path d="M296,200a8.00008,8.00008,0,0,0-8,8v48a8.00008,8.00008,0,0,0,8,8h48a8.00008,8.00008,0,0,0,8-8V208a8.00008,8.00008,0,0,0-8-8Zm40,48H304V216h32Z"></path><path d="M368,152V256a8.00008,8.00008,0,0,0,8,8h48a8.00008,8.00008,0,0,0,8-8V152a8.00008,8.00008,0,0,0-8-8H376A8.00008,8.00008,0,0,0,368,152Zm16,8h32v88H384Z"></path><path d="M245.65723,82.34326a8.00122,8.00122,0,0,0-11.31446,0l-80,80,11.31446,11.31348L240,99.31348l74.34277,74.34326a8.00063,8.00063,0,0,0,11.31446,0L392,107.314V128h16V88a8.00008,8.00008,0,0,0-8-8H360V96h20.686L320,156.68652Z"></path><path d="M152,224H40a24.0275,24.0275,0,0,0-24,24V472a24.0275,24.0275,0,0,0,24,24H152a24.0275,24.0275,0,0,0,24-24V248A24.0275,24.0275,0,0,0,152,224Zm8,248a8.00917,8.00917,0,0,1-8,8H40a8.00917,8.00917,0,0,1-8-8V248a8.00917,8.00917,0,0,1,8-8H152a8.00917,8.00917,0,0,1,8,8Z"></path><circle cx="96" cy="464" r="8"></circle><rect x="80" y="248" width="32" height="16"></rect><circle cx="128" cy="256" r="8"></circle><path d="M96,304a56,56,0,1,0,56,56A56.06322,56.06322,0,0,0,96,304ZM56,360a39.97347,39.97347,0,0,1,62.042-33.35608L62.644,382.04211A39.75981,39.75981,0,0,1,56,360Zm17.958,33.35608L96,371.314l22.042,22.04212a39.88541,39.88541,0,0,1-44.084,0Zm55.398-11.314L107.314,360l22.042-22.04211a39.88521,39.88521,0,0,1,0,44.08422Z"></path></g></svg>